<svg xmlns="http://www.w3.org/2000/svg" viewBox="0 0 32 32" width="32" height="32">
  <!-- unsigned mark — ink ground, signal green (tokens.json: color.bg / color.green) -->
  <rect x="2" y="2" width="28" height="28" rx="6" ry="6" fill="#0a0a0a" />
  <!-- Outer rim -->
  <circle cx="16" cy="16" r="10" fill="none" stroke="#00e599" stroke-width="1.8" opacity="0.9" />
  <!-- Spokes -->
  <line x1="16" y1="6" x2="16" y2="8" stroke="#00e599" stroke-width="1.3" stroke-linecap="square" opacity="0.9" />
  <line x1="24.7" y1="11" x2="23" y2="12" stroke="#00e599" stroke-width="1.3" stroke-linecap="square" opacity="0.9" />
  <line x1="24.7" y1="21" x2="23" y2="20" stroke="#00e599" stroke-width="1.3" stroke-linecap="square" opacity="0.9" />
  <line x1="16" y1="26" x2="16" y2="24" stroke="#00e599" stroke-width="1.3" stroke-linecap="square" opacity="0.9" />
  <line x1="7.3" y1="21" x2="9" y2="20" stroke="#00e599" stroke-width="1.3" stroke-linecap="square" opacity="0.9" />
  <line x1="7.3" y1="11" x2="9" y2="12" stroke="#00e599" stroke-width="1.3" stroke-linecap="square" opacity="0.9" />
  <!-- Square knobs -->
  <rect x="14.8" y="4" width="2.4" height="2.4" rx="0.4" fill="#00e599" opacity="0.9" />
  <rect x="24" y="9.8" width="2.4" height="2.4" rx="0.4" fill="#00e599" opacity="0.9" />
  <rect x="24" y="19.8" width="2.4" height="2.4" rx="0.4" fill="#00e599" opacity="0.9" />
  <rect x="14.8" y="25.6" width="2.4" height="2.4" rx="0.4" fill="#00e599" opacity="0.9" />
  <rect x="5.6" y="19.8" width="2.4" height="2.4" rx="0.4" fill="#00e599" opacity="0.9" />
  <rect x="5.6" y="9.8" width="2.4" height="2.4" rx="0.4" fill="#00e599" opacity="0.9" />
  <!-- Hub: zero without slash — the unsigned zero -->
  <rect x="13" y="12.5" width="6" height="7" rx="1.5" fill="none" stroke="#00e599" stroke-width="1.3" opacity="1" />
</svg>
